<svg xmlns="http://www.w3.org/2000/svg" viewBox="0 0 960 540" role="img" aria-labelledby="t d">
<title id="t">Koali Use Mosaic</title><desc id="d">Abstract field of colored Koali scenario cells.</desc>
<defs><linearGradient id="bg" x1="0" y1="0" x2="1" y2="1"><stop stop-color="#141c2a"/><stop offset="1" stop-color="#090c12"/></linearGradient></defs>
<rect width="960" height="540" rx="36" fill="url(#bg)"/>
<g transform="translate(260 90)" stroke="#fff" stroke-opacity=".35" stroke-width="3">
<path fill="#6ea8fe" d="M40 0l35 20v40L40 80 5 60V20z"/><path fill="#55d6be" d="M120 0l35 20v40l-35 20-35-20V20z"/><path fill="#74c69d" d="M200 0l35 20v40l-35 20-35-20V20z"/><path fill="#9b87f5" d="M280 0l35 20v40l-35 20-35-20V20z"/><path fill="#f4a261" d="M360 0l35 20v40l-35 20-35-20V20z"/>
<path fill="#e76f51" d="M80 72l35 20v40l-35 20-35-20V92z"/><path fill="#e9c46a" d="M160 72l35 20v40l-35 20-35-20V92z"/><path fill="#e879b9" d="M240 72l35 20v40l-35 20-35-20V92z"/><path fill="#6ea8fe" d="M320 72l35 20v40l-35 20-35-20V92z"/>
<path fill="#55d6be" d="M120 144l35 20v40l-35 20-35-20v-40z"/><path fill="#74c69d" d="M200 144l35 20v40l-35 20-35-20v-40z"/><path fill="#9b87f5" d="M280 144l35 20v40l-35 20-35-20v-40z"/>
</g>
<text x="64" y="430" fill="#fff" font-family="system-ui,sans-serif" font-size="42" font-weight="720">KOALI USE MOSAIC</text>
<text x="64" y="474" fill="#aab3c2" font-family="system-ui,sans-serif" font-size="22">Explore the mosaic. Discover a scenario.</text>
</svg>
